<svg width="1013" height="637" viewBox="0 0 1013 637" fill="none" xmlns="http://www.w3.org/2000/svg">
<g id="undraw_fill_forms_yltj 1">
<g clip-path="url(#clip0)">
<path id="Vector" d="M378.793 266.434C378.793 266.434 461.793 270.434 466.793 299.434C471.793 328.434 369.793 302.434 369.793 302.434L378.793 266.434Z" fill="#A0616A"/>
<path id="Vector_2" d="M247.793 174.434C247.793 174.434 261.793 178.434 272.793 202.434C283.793 226.434 305.793 248.434 305.793 248.434L394.793 265.434L379.793 310.434L294.793 299.434L241.793 269.434L247.793 174.434Z" fill="#575A89"/>
<path id="Vector_3" opacity="0.1" d="M247.793 174.434C247.793 174.434 261.793 178.434 272.793 202.434C283.793 226.434 305.793 248.434 305.793 248.434L394.793 265.434L379.793 310.434L294.793 299.434L241.793 269.434L247.793 174.434Z" fill="black"/>
<path id="Vector_4" d="M929.293 92.9343H824.293V94.9343H929.293V92.9343Z" fill="#3F3D56"/>
<path id="Vector_5" d="M742.293 92.9343H409.293V94.9343H742.293V92.9343Z" fill="#3F3D56"/>
<path id="Vector_6" d="M115.793 128.434L124.793 185.434L186.793 188.434L179.793 104.434L115.793 128.434Z" fill="#A0616A"/>
<path id="Vector_7" d="M50.2931 508.934L47.2931 634.934H141.293L155.293 584.934L166.293 634.934H264.293C264.293 634.934 266.293 490.934 255.293 489.934C244.293 488.934 50.2931 508.934 50.2931 508.934Z" fill="#2F2E41"/>
<path id="Vector_8" d="M135.793 143.434C165.616 143.434 189.793 119.258 189.793 89.4343C189.793 59.611 165.616 35.4343 135.793 35.4343C105.97 35.4343 81.7931 59.611 81.7931 89.4343C81.7931 119.258 105.97 143.434 135.793 143.434Z" fill="#A0616A"/>
<path id="Vector_9" d="M40 513.921L68 375.921L31 192.921L116.214 160.946L158 155.921L179.007 152L194 155.921C194 155.921 254 170.921 257 181.921C260 192.921 245 282.921 245 282.921L231 356.921L262 489.921C262 489.921 133 533.921 42 513.921H40Z" fill="#575A89"/>
<path id="Vector_10" opacity="0.1" d="M82.293 243.934V280.934L200.285 281.095L88.293 268.934L82.293 243.934Z" fill="black"/>
<path id="Vector_11" opacity="0.1" d="M72.159 346.12L220.293 324.934L72.159 366.89V346.12Z" fill="black"/>
<path id="Vector_12" opacity="0.1" d="M307.293 248.934L291.412 306.159L318.293 250.822L307.293 248.934Z" fill="black"/>
<path id="Vector_13" d="M180.234 35.2779L190.164 31.3025C190.164 31.3025 169.401 8.44377 140.514 10.4316L148.638 1.48677C148.638 1.48677 128.778 -6.46401 110.724 14.4069C101.233 25.3783 90.2515 38.2746 83.4059 52.8021H72.7715L77.2099 62.575L61.6754 72.3478L77.62 70.5924C76.6699 75.9442 76.5241 81.4078 77.1873 86.8026C77.8713 92.199 80.6252 97.1186 84.8677 100.523V100.523C84.8677 100.523 97.1828 75.0321 97.1828 71.0566V80.9952C97.1828 80.9952 107.113 72.0505 107.113 66.0874L112.529 73.0444L115.237 62.112L148.638 73.0444L143.222 64.0998L163.985 67.0813L155.86 56.1488C155.86 56.1488 179.331 69.069 180.234 80.0014C181.137 90.9338 188.007 101.293 188.007 101.293C188.007 101.293 206.413 50.1857 180.234 35.2779Z" fill="#2F2E41"/>
<path id="Vector_14" d="M617.293 234.934H233.293V635.934H617.293V234.934Z" fill="url(#paint0_linear)"/>
<path id="Vector_15" d="M557.293 322.934H273.293V362.934H557.293V322.934Z" fill="#299211"/>
<g id="bar1">
<path id="Vector_16" d="M508.111 428.934H322.116V448.934H508.111V428.934Z" fill="#299211"/>
</g>
<path id="Vector_17" d="M501.994 464H316V484H501.994V464Z" fill="#299211"/>
<path id="Vector_18" d="M415.832 498.934H322.834V518.934H415.832V498.934Z" fill="#299211"/>
<path id="Vector_19" d="M562.293 599.934H519.293V619.934H562.293V599.934Z" fill="#299211"/>
<path id="Vector_20" d="M205.793 285.434C205.793 285.434 292.793 272.434 305.793 291.434C318.793 310.434 213.793 320.434 213.793 320.434L205.793 285.434Z" fill="#A0616A"/>
<path id="Vector_21" d="M45.7931 192.434H39.5272C36.9501 192.427 34.4655 193.394 32.5714 195.141C26.6234 200.664 14.0468 214.916 8.79306 240.434C1.79306 274.434 -10.2069 340.434 16.7931 345.434C43.7931 350.434 220.793 326.434 220.793 326.434L207.793 280.434L79.7931 281.434C79.7931 281.434 81.7931 259.434 77.7931 245.434C73.7931 231.434 45.7931 192.434 45.7931 192.434Z" fill="#575A89"/>
<path id="Vector_22" d="M409.293 134.934C431.937 134.934 450.293 116.578 450.293 93.9343C450.293 71.2907 431.937 52.9343 409.293 52.9343C386.649 52.9343 368.293 71.2907 368.293 93.9343C368.293 116.578 386.649 134.934 409.293 134.934Z" fill="#D0CDE1"/>
<g id="dot1">
<path id="Vector_23" d="M582 135C604.644 135 623 116.644 623 94C623 71.3563 604.644 53 582 53C559.356 53 541 71.3563 541 94C541 116.644 559.356 135 582 135Z" fill="#3F3D56"/>
</g>
<g id="dot2">
<path id="Vector_24" d="M783.293 135.934C774.986 135.934 766.866 133.471 759.959 128.856C753.052 124.241 747.669 117.681 744.49 110.007C741.311 102.332 740.479 93.8877 742.1 85.7405C743.721 77.5933 747.721 70.1096 753.595 64.2358C759.468 58.362 766.952 54.3619 775.099 52.7413C783.246 51.1207 791.691 51.9525 799.366 55.1313C807.04 58.3102 813.6 63.6935 818.215 70.6003C822.83 77.5072 825.293 85.6275 825.293 93.9343C825.28 105.07 820.851 115.745 812.978 123.619C805.104 131.493 794.428 135.922 783.293 135.934V135.934ZM783.293 53.9343C775.382 53.9343 767.648 56.2802 761.07 60.6755C754.492 65.0708 749.365 71.3179 746.338 78.627C743.31 85.936 742.518 93.9787 744.062 101.738C745.605 109.497 749.415 116.624 755.009 122.219C760.603 127.813 767.73 131.622 775.489 133.166C783.249 134.709 791.291 133.917 798.6 130.889C805.909 127.862 812.157 122.735 816.552 116.157C820.947 109.579 823.293 101.846 823.293 93.9343C823.281 83.3293 819.063 73.1622 811.564 65.6633C804.065 58.1645 793.898 53.9463 783.293 53.9343Z" fill="#27253B"/>
</g>
<g id="dot3">
<path id="Vector_25" d="M970.293 135.934C961.986 135.934 953.866 133.471 946.959 128.856C940.052 124.241 934.669 117.681 931.49 110.007C928.311 102.332 927.48 93.8877 929.1 85.7405C930.721 77.5933 934.721 70.1096 940.595 64.2358C946.468 58.362 953.952 54.3619 962.099 52.7413C970.247 51.1207 978.691 51.9525 986.366 55.1313C994.04 58.3102 1000.6 63.6935 1005.21 70.6003C1009.83 77.5072 1012.29 85.6275 1012.29 93.9343C1012.28 105.07 1007.85 115.745 999.978 123.619C992.104 131.493 981.428 135.922 970.293 135.934V135.934ZM970.293 53.9343C962.382 53.9343 954.648 56.2802 948.07 60.6755C941.492 65.0708 936.365 71.3179 933.338 78.627C930.31 85.936 929.518 93.9787 931.062 101.738C932.605 109.497 936.415 116.624 942.009 122.219C947.603 127.813 954.73 131.622 962.489 133.166C970.249 134.709 978.291 133.917 985.6 130.889C992.909 127.862 999.157 122.735 1003.55 116.157C1007.95 109.579 1010.29 101.846 1010.29 93.9343C1010.28 83.3293 1006.06 73.1622 998.564 65.6633C991.065 58.1645 980.898 53.9463 970.293 53.9343Z" fill="#3F3D56"/>
</g>
<path id="Vector_26" d="M403.641 111.377L385.873 87.688L392.273 82.887L404.506 99.197L460.745 42.959L466.401 48.615L403.641 111.377Z" fill="#3F3D56"/>
<path id="Vector_27" d="M833.09 633.831H16.4957V636.613H833.09V633.831Z" fill="#3F3D56"/>
</g>
</g>
<defs>
<linearGradient id="paint0_linear" x1="617" y1="186.5" x2="81.5" y2="728.5" gradientUnits="userSpaceOnUse">
<stop offset="0.213542" stop-color="#B9E1D3"/>
<stop offset="0.973958" stop-color="#D0CDE1" stop-opacity="0"/>
</linearGradient>
<clipPath id="clip0">
<rect width="1012.29" height="636.613" fill="white"/>
</clipPath>
</defs>
</svg>
